<?xml version="1.0" encoding="UTF-8"?>
<svg id="Layer_1" xmlns="http://www.w3.org/2000/svg" version="1.1" viewBox="0 0 64 64">
  <!-- Generator: Adobe Illustrator 29.3.1, SVG Export Plug-In . SVG Version: 2.1.0 Build 151)  -->
  <path d="M16.2,4.79v11.93H4.27V4.79h11.93M18.99,2H1.48v17.51h17.51V2h0Z"/>
  <path d="M38.1,4.79v11.93h-11.93V4.79h11.93M40.89,2h-17.51v17.51h17.51V2h0Z"/>
  <path d="M16.2,26.02v11.93H4.27v-11.93h11.93M18.99,23.22H1.48v17.51h17.51v-17.51h0Z"/>
  <path d="M38.1,26.02v11.93h-11.93v-11.93h11.93M40.89,23.22h-17.51v17.51h17.51v-17.51h0Z"/>
  <path d="M59.73,4.79v11.93h-11.93V4.79h11.93M62.52,2h-17.51v17.51h17.51V2h0Z"/>
  <path d="M59.73,26.02v11.93h-11.93v-11.93h11.93M62.52,23.22h-17.51v17.51h17.51v-17.51h0Z"/>
  <path d="M16.2,47.28v11.93H4.27v-11.93h11.93M18.99,44.49H1.48v17.51h17.51v-17.51h0Z"/>
  <path d="M38.1,47.28v11.93h-11.93v-11.93h11.93M40.89,44.49h-17.51v17.51h17.51v-17.51h0Z"/>
  <path d="M59.73,47.28v11.93h-11.93v-11.93h11.93M62.52,44.49h-17.51v17.51h17.51v-17.51h0Z"/>
</svg>