<?xml version="1.0" encoding="UTF-8"?>
<svg id="Layer_1" xmlns="http://www.w3.org/2000/svg" version="1.1" viewBox="0 0 64 64">
  <!-- Generator: Adobe Illustrator 29.3.1, SVG Export Plug-In . SVG Version: 2.1.0 Build 151)  -->
  <defs>
    <style>
      .st0 {
        fill: none;
        stroke: #000;
        stroke-linejoin: round;
        stroke-width: 1.76px;
      }
    </style>
  </defs>
  <path class="st0" d="M47.28,50.77c-1.29,0-2.45-.52-3.29-1.36-.84-.84-1.36-2-1.36-3.29,0-2.57,2.08-4.65,4.65-4.65,1.11,0,2.12.39,2.92,1.03,1.06.85,1.73,2.16,1.73,3.62,0,2.57-2.08,4.65-4.65,4.65Z"/>
  <path class="st0" d="M17.87,23.48c-2.57,0-4.65-2.08-4.65-4.65s2.08-4.65,4.65-4.65,4.65,2.08,4.65,4.65-2.08,4.65-4.65,4.65Z"/>
  <circle class="st0" cx="32.6" cy="32.47" r="30"/>
  <path class="st0" d="M43.91,49.28c-3.23,2.18-7.12,3.45-11.31,3.45-11.18,0-20.25-9.07-20.25-20.25,0-3.79,1.04-7.35,2.86-10.38"/>
  <path class="st0" d="M20.88,15.95c3.31-2.35,7.35-3.73,11.72-3.73,11.19,0,20.25,9.07,20.25,20.25,0,3.89-1.1,7.53-3,10.62"/>
  <path class="st0" d="M32.6,41.46c-4.96,0-8.99-4.03-8.99-8.99s4.03-8.99,8.99-8.99,8.99,4.03,8.99,8.99-4.03,8.99-8.99,8.99Z"/>
  <line class="st0" x1="32.6" y1="2.47" x2="32.6" y2="62.47"/>
  <line class="st0" x1="62.6" y1="32.47" x2="2.6" y2="32.47"/>
</svg>