<?xml version="1.0" encoding="UTF-8"?>
<svg id="Layer_1" xmlns="http://www.w3.org/2000/svg" version="1.1" viewBox="0 0 64 64">
  <!-- Generator: Adobe Illustrator 29.3.1, SVG Export Plug-In . SVG Version: 2.1.0 Build 151)  -->
  <path d="M32.26,56.6c-8.54,0-16.73-2.9-22.46-7.97l-.23-.2-.06-.3c-.24-1.22-.66-4.26.61-6.2,1.29-1.98,3.55-2.94,5.73-3.87,1.18-.5,2.29-.98,3.16-1.58.89-.61,1.86-2.14,1.89-3.54.01-.75-.25-1.33-.78-1.72-.16-.12-.33-.22-.56-.34-.76-.27-1.7-.42-2.79-.42-2.42,0-4.97.67-6.2,1.07l.03.09-.96.25c-.96.25-1.77.36-2.5.36h0c-1.91,0-3.28-.82-4.07-2.45-.28-.58-.42-1.2-.51-1.68l-.04-.19.05-.19c.57-2.31,1.56-4.54,2.95-6.64l1.06-1.6.04.13c1.53-1.97,3.48-3.78,5.82-5.42v-.02s.69-.51.69-.51c1.01-.66,2.09-1.28,3.22-1.83,1.48-.76,2.49-1.14,2.53-1.16l1.15-.43v.04c3.86-1.37,7.97-2.06,12.23-2.06,16.69,0,30.26,10.85,30.26,24.18s-13.58,24.18-30.26,24.18ZM11.24,47.47c5.39,4.65,13.03,7.31,21.02,7.31,15.69,0,28.45-10.03,28.45-22.37s-12.76-22.36-28.45-22.36c-4.46,0-8.74.8-12.72,2.37l-1.16.46h0c-.34.15-.75.35-1.2.59-.81.4-1.6.83-2.34,1.29h0s-.68.48-.68.48c-3.07,2.03-5.45,4.35-7.09,6.91l-1.01,1.59c-.74,1.37-1.3,2.78-1.67,4.23.09.44.19.75.32,1.01.48.99,1.23,1.43,2.43,1.43h0c.57,0,1.23-.1,2.04-.31h0c1.36-.62,4.96-1.46,7.58-1.46,1.33,0,2.5.18,3.47.54l.09.04c.34.17.63.34.89.53,1.01.76,1.54,1.87,1.51,3.22-.04,1.86-1.16,3.96-2.67,5-1.02.7-2.27,1.24-3.47,1.75-1.94.83-3.94,1.68-4.93,3.2-.59.9-.73,2.62-.4,4.55ZM40.62,49.28c-3.45,0-6.26-2.47-6.26-5.49s2.81-5.5,6.26-5.5,6.26,2.47,6.26,5.5-2.81,5.49-6.26,5.49ZM40.62,40.11c-2.45,0-4.44,1.65-4.44,3.68s1.99,3.67,4.44,3.67,4.44-1.65,4.44-3.67-1.99-3.68-4.44-3.68ZM49.79,40.11c-3.45,0-6.26-2.46-6.26-5.49s2.81-5.49,6.26-5.49,6.26,2.47,6.26,5.49-2.81,5.49-6.26,5.49ZM49.79,30.94c-2.45,0-4.44,1.65-4.44,3.67s1.99,3.67,4.44,3.67,4.44-1.65,4.44-3.67-1.99-3.67-4.44-3.67ZM44.44,27.58c-3.45,0-6.26-2.47-6.26-5.49s2.81-5.49,6.26-5.49,6.26,2.46,6.26,5.49-2.81,5.49-6.26,5.49ZM44.44,18.41c-2.45,0-4.44,1.65-4.44,3.67s1.99,3.68,4.44,3.68,4.44-1.65,4.44-3.68-1.99-3.67-4.44-3.67ZM29.92,22.99c-3.45,0-6.26-2.46-6.26-5.49s2.81-5.49,6.26-5.49,6.26,2.47,6.26,5.49-2.81,5.49-6.26,5.49ZM29.92,13.82c-2.45,0-4.44,1.65-4.44,3.67s1.99,3.67,4.44,3.67,4.44-1.65,4.44-3.67-1.99-3.67-4.44-3.67Z"/>
</svg>