<?xml version="1.0" encoding="UTF-8"?>
<svg id="Layer_1" xmlns="http://www.w3.org/2000/svg" version="1.1" viewBox="0 0 64 64">
  <!-- Generator: Adobe Illustrator 29.3.1, SVG Export Plug-In . SVG Version: 2.1.0 Build 151)  -->
  <defs>
    <style>
      .st0 {
        fill: none;
        stroke: #000;
        stroke-miterlimit: 10;
        stroke-width: 1.88px;
      }
    </style>
  </defs>
  <path class="st0" d="M33.71,16.27c-5.64-5.01-12.48-7.13-17.52-4.82-5.04,2.32-6.96,8.48-5.49,15.42,5.1.73,16.01.7,23.01-10.61Z"/>
  <path class="st0" d="M12.51,31.54c.53,2.79,1.62,5.69,3.29,8.51l1.94,3.26c5.89,9.9,16.85,15.17,24.36,11.71,7.51-3.46,8.84-14.38,2.96-24.28l-1.94-3.26c-1.68-2.82-3.77-5.27-6.08-7.25-7.7,11.64-19.18,11.92-24.53,11.31Z"/>
  <g>
    <path class="st0" d="M4.08,10.23s-1.89,7.65,7.2,6.96"/>
    <path class="st0" d="M21.96,2s8.22,3,2.39,9.17"/>
  </g>
  <path class="st0" d="M37.81,20.92s-1.93-7.95,5.95-8.73"/>
  <line class="st0" x1="44.09" y1="29.12" x2="55.48" y2="23.88"/>
  <path class="st0" d="M48.16,38.32s9.26-2.6,14.57,2.9"/>
  <path class="st0" d="M12.82,32.42s-6.32-5.93-11.55-.68"/>
  <line class="st0" x1="16.89" y1="41.63" x2="5.5" y2="46.87"/>
  <path class="st0" d="M23.16,49.82s-7.7,5.21-5.6,12.18"/>
  <path class="st0" d="M37.75,29.34s8.59,12.68,3.35,20.18"/>
</svg>