<?xml version="1.0" encoding="UTF-8"?>
<svg id="Layer_1" xmlns="http://www.w3.org/2000/svg" version="1.1" viewBox="0 0 64 64">
  <!-- Generator: Adobe Illustrator 29.3.1, SVG Export Plug-In . SVG Version: 2.1.0 Build 151)  -->
  <defs>
    <style>
      .st0 {
        fill-rule: evenodd;
      }
    </style>
  </defs>
  <path class="st0" d="M56.78,40.49h-1.28c-.37,1.12-.83,2.21-1.35,3.25l.91.91c2.04,2.04,2.04,5.34,0,7.38l-3.69,3.69c-2.04,2.04-5.34,2.04-7.38,0l-.91-.91c-1.05.52-2.13.98-3.25,1.35v1.28c0,2.88-2.34,5.22-5.22,5.22h-5.22c-2.88,0-5.22-2.34-5.22-5.22v-1.28c-1.13-.37-2.21-.83-3.25-1.35l-.91.91c-2.04,2.04-5.34,2.04-7.38,0l-3.69-3.69c-2.04-2.04-2.04-5.34,0-7.38l.91-.91c-.52-1.04-.98-2.13-1.35-3.25h-1.28c-2.88,0-5.22-2.34-5.22-5.22v-5.22c0-2.88,2.34-5.22,5.22-5.22h1.28c.38-1.12.83-2.21,1.35-3.25l-.91-.91c-2.04-2.04-2.04-5.34,0-7.38l3.69-3.69c2.04-2.04,5.34-2.04,7.38,0l.91.91c1.04-.52,2.13-.98,3.25-1.36v-1.28c0-2.88,2.34-5.22,5.22-5.22h5.22c2.88,0,5.22,2.34,5.22,5.22v1.28c1.12.37,2.2.83,3.25,1.36l.91-.91c2.04-2.04,5.34-2.04,7.38,0l3.69,3.69c2.04,2.04,2.04,5.34,0,7.38l-.91.91c.52,1.05.98,2.13,1.35,3.25h1.28c2.88,0,5.22,2.34,5.22,5.22v5.22c0,2.88-2.34,5.22-5.22,5.22ZM59.39,30.05c0-1.44-1.17-2.61-2.61-2.61h-3.24c-.54-2.26-1.47-4.36-2.65-6.29l1.92-1.92.41-.4c1.02-1.02,1.02-2.67,0-3.69l-3.69-3.69c-1.02-1.02-2.67-1.02-3.69,0l-.41.41h0l-1.92,1.92c-1.93-1.18-4.03-2.1-6.29-2.64v-3.25c0-1.44-1.17-2.61-2.61-2.61h-5.22c-1.44,0-2.61,1.17-2.61,2.61v3.25c-2.26.55-4.36,1.47-6.29,2.64l-1.92-1.92-.4-.41c-1.02-1.02-2.67-1.02-3.69,0l-3.69,3.69c-1.02,1.02-1.02,2.67,0,3.69l.41.4,1.92,1.92c-1.18,1.93-2.1,4.03-2.65,6.29h-3.24c-1.44,0-2.61,1.17-2.61,2.61v5.22c0,1.44,1.17,2.61,2.61,2.61h3.24c.55,2.26,1.47,4.36,2.65,6.29l-1.92,1.92-.41.4c-1.02,1.02-1.02,2.67,0,3.69l3.69,3.69c1.02,1.02,2.67,1.02,3.69,0l2.33-2.33c1.93,1.18,4.03,2.1,6.29,2.64v3.25c0,1.44,1.17,2.61,2.61,2.61h5.22c1.44,0,2.61-1.17,2.61-2.61v-3.25c2.26-.55,4.36-1.47,6.29-2.64l2.33,2.33c1.02,1.02,2.67,1.02,3.69,0l3.69-3.69c1.02-1.02,1.02-2.67,0-3.69l-.41-.4-1.92-1.92c1.18-1.93,2.1-4.03,2.65-6.29h3.24c1.44,0,2.61-1.17,2.61-2.61v-5.22ZM32,45.7c-7.2,0-13.04-5.84-13.04-13.04s5.84-13.04,13.04-13.04,13.04,5.84,13.04,13.04-5.84,13.04-13.04,13.04ZM32,22.23c-5.76,0-10.43,4.67-10.43,10.43s4.67,10.43,10.43,10.43,10.43-4.67,10.43-10.43-4.67-10.43-10.43-10.43ZM32,37.88c-2.88,0-5.22-2.34-5.22-5.22s2.34-5.22,5.22-5.22,5.22,2.34,5.22,5.22-2.34,5.22-5.22,5.22ZM32,30.05c-1.44,0-2.61,1.17-2.61,2.61s1.17,2.61,2.61,2.61,2.61-1.17,2.61-2.61-1.17-2.61-2.61-2.61Z"/>
</svg>