<?xml version="1.0" encoding="UTF-8"?>
<svg id="Layer_1" xmlns="http://www.w3.org/2000/svg" version="1.1" viewBox="0 0 64 64">
  <!-- Generator: Adobe Illustrator 29.3.1, SVG Export Plug-In . SVG Version: 2.1.0 Build 151)  -->
  <path d="M59.5,4.5v55H4.5V4.5h55M59.5,2H4.5c-1.38,0-2.5,1.13-2.5,2.5v55c0,1.38,1.13,2.5,2.5,2.5h55c1.38,0,2.5-1.12,2.5-2.5V4.5c0-1.37-1.13-2.5-2.5-2.5h0Z"/>
  <path d="M46.73,4.5v18.34h-29.44V4.5h29.44M47.98,2h-31.94c-.69,0-1.25.56-1.25,1.25v20.84c0,.69.56,1.25,1.25,1.25h31.94c.69,0,1.25-.56,1.25-1.25V3.25c0-.69-.56-1.25-1.25-1.25h0Z"/>
  <path d="M46.73,34.5v25h-29.44v-25h29.44M47.98,32h-31.94c-.69,0-1.25.56-1.25,1.25v27.5c0,.69.56,1.25,1.25,1.25h31.94c.69,0,1.25-.56,1.25-1.25v-27.5c0-.69-.56-1.25-1.25-1.25h0Z"/>
</svg>