<?xml version="1.0" encoding="UTF-8"?>
<svg id="Layer_1" xmlns="http://www.w3.org/2000/svg" version="1.1" viewBox="0 0 64 64">
  <!-- Generator: Adobe Illustrator 29.3.1, SVG Export Plug-In . SVG Version: 2.1.0 Build 151)  -->
  <defs>
    <style>
      .st0 {
        fill: none;
        stroke: #000;
        stroke-linecap: round;
        stroke-linejoin: round;
        stroke-width: 1.76px;
      }
    </style>
  </defs>
  <g>
    <line class="st0" x1="21.74" y1="32" x2="42.26" y2="32"/>
    <line class="st0" x1="32" y1="21.74" x2="32" y2="42.25"/>
  </g>
  <path d="M52.61,48.19l-38.22-.07c-7.02-.71-12.39-6.58-12.39-13.74s6-13.61,13.45-13.81c.69-4.3,4.43-7.55,8.88-7.55,2.04,0,3.97.68,5.55,1.92,2.73-3.23,6.79-5.14,11.05-5.14,7.97,0,14.46,6.48,14.46,14.45,0,1.85-.34,3.63-1.01,5.32,4.37.83,7.63,4.64,7.63,9.23,0,5.18-4.21,9.39-9.39,9.39ZM15.62,46.28h36.99c4.12,0,7.48-3.35,7.48-7.48s-3.15-7.3-7.16-7.47l-1.49-.06.68-1.33c.9-1.77,1.36-3.68,1.36-5.68,0-6.91-5.62-12.54-12.54-12.54-4,0-7.79,1.94-10.15,5.18l-.66.91-.79-.79c-1.34-1.33-3.11-2.07-5-2.07-3.74,0-6.84,2.92-7.06,6.65l-.05.93-1.39-.04c-6.56,0-11.9,5.34-11.9,11.9s5.03,11.66,11.46,11.89h.24Z"/>
</svg>