<?xml version="1.0" encoding="UTF-8"?>
<svg id="Layer_1" xmlns="http://www.w3.org/2000/svg" version="1.1" viewBox="0 0 64 64">
  <!-- Generator: Adobe Illustrator 29.3.1, SVG Export Plug-In . SVG Version: 2.1.0 Build 151)  -->
  <path d="M52.6,41.17h-17.52v-1.92h17.52c4.12,0,7.47-3.35,7.47-7.47s-3.14-7.3-7.16-7.47l-1.5-.06.68-1.34c.9-1.77,1.36-3.68,1.36-5.68,0-6.91-5.62-12.53-12.53-12.53-4,0-7.79,1.94-10.14,5.18l-.66.91-.8-.79c-1.34-1.33-3.11-2.07-5-2.07-3.74,0-6.84,2.92-7.06,6.65l-.05.94-1.4-.04c-6.56,0-11.89,5.33-11.89,11.89s5.03,11.65,11.45,11.88h.25s13.29,0,13.29,0v1.92l-14.54-.08c-7.01-.71-12.38-6.58-12.38-13.74s6-13.61,13.45-13.81c.7-4.3,4.44-7.55,8.88-7.55,2.04,0,3.97.68,5.55,1.92,2.73-3.23,6.79-5.14,11.05-5.14,7.97,0,14.46,6.48,14.46,14.46,0,1.85-.34,3.63-1.01,5.32,4.37.83,7.62,4.64,7.62,9.23,0,5.18-4.22,9.4-9.4,9.4Z"/>
  <polygon points="31.97 61.23 21.93 51.19 23.29 49.83 31.97 58.51 40.65 49.83 42.02 51.19 31.97 61.23"/>
  <rect x="31.01" y="22.25" width="1.93" height="36.98"/>
</svg>