<?xml version="1.0" encoding="UTF-8"?>
<svg id="Layer_1" xmlns="http://www.w3.org/2000/svg" version="1.1" viewBox="0 0 64 64">
  <!-- Generator: Adobe Illustrator 29.3.1, SVG Export Plug-In . SVG Version: 2.1.0 Build 151)  -->
  <defs>
    <style>
      .st0 {
        fill: none;
        stroke: #000;
        stroke-miterlimit: 10;
        stroke-width: 1.76px;
      }
    </style>
  </defs>
  <path class="st0" d="M60.12,27.73h-5.26c-.61-2.96-1.77-5.72-3.39-8.16l3.72-3.72c.73-.73.73-1.92,0-2.65l-3.98-3.98c-.73-.73-1.92-.73-2.65,0l-3.72,3.72c-2.44-1.61-5.2-2.78-8.16-3.39v-5.26c0-1.03-.84-1.88-1.88-1.88h-5.63c-1.03,0-1.87.84-1.87,1.88v5.26c-2.96.61-5.72,1.77-8.16,3.39l-3.72-3.72c-.73-.73-1.92-.73-2.65,0l-3.98,3.98c-.73.73-.73,1.92,0,2.65l3.72,3.72c-1.61,2.44-2.78,5.2-3.39,8.16H3.87c-1.03,0-1.87.84-1.87,1.88v5.63c0,1.03.84,1.87,1.87,1.87h5.26c.61,2.97,1.77,5.73,3.39,8.16l-3.72,3.72c-.73.73-.73,1.92,0,2.65l3.98,3.98c.73.73,1.92.73,2.65,0l3.72-3.72c2.44,1.61,5.2,2.78,8.16,3.39v5.25c0,1.03.84,1.88,1.87,1.88h5.63c1.03,0,1.88-.84,1.88-1.88v-5.25c2.97-.61,5.72-1.78,8.16-3.39l3.72,3.72c.73.73,1.92.73,2.65,0l3.98-3.98c.73-.73.73-1.92,0-2.65l-3.72-3.72c1.61-2.44,2.78-5.2,3.39-8.16h5.26c1.03,0,1.87-.84,1.87-1.87v-5.63c0-1.03-.84-1.88-1.87-1.88Z"/>
  <path class="st0" d="M47.45,32.42c0,8.54-6.92,15.45-15.45,15.45s-15.45-6.92-15.45-15.45,6.92-15.45,15.45-15.45,15.45,6.92,15.45,15.45Z"/>
</svg>