<?xml version="1.0" encoding="UTF-8"?>
<svg id="Layer_1" xmlns="http://www.w3.org/2000/svg" version="1.1" viewBox="0 0 64 64">
  <!-- Generator: Adobe Illustrator 29.3.1, SVG Export Plug-In . SVG Version: 2.1.0 Build 151)  -->
  <defs>
    <style>
      .st0 {
        fill: none;
        stroke: #000;
        stroke-linecap: round;
        stroke-linejoin: round;
        stroke-width: 1.76px;
      }
    </style>
  </defs>
  <g>
    <g>
      <path class="st0" d="M13.39,20.6c6.29,0,11.39,5.11,11.39,11.4s-5.1,11.4-11.39,11.4-11.39-5.1-11.39-11.4,5.1-11.4,11.39-11.4Z"/>
      <line class="st0" x1="24.79" y1="32" x2="62" y2="32"/>
    </g>
    <path class="st0" d="M8.33,31.5s1.58-5.44,7.02-3.78"/>
  </g>
  <g>
    <g>
      <path class="st0" d="M50.61,62.4c-6.29,0-11.39-5.11-11.39-11.4s5.1-11.4,11.39-11.4,11.39,5.1,11.39,11.4-5.1,11.4-11.39,11.4Z"/>
      <line class="st0" x1="39.21" y1="51" x2="2" y2="51"/>
    </g>
    <path class="st0" d="M55.67,51.5s-1.58,5.44-7.02,3.78"/>
  </g>
  <g>
    <g>
      <path class="st0" d="M50.61,24.4c-6.29,0-11.39-5.11-11.39-11.4S44.31,1.6,50.61,1.6s11.39,5.1,11.39,11.4-5.1,11.4-11.39,11.4Z"/>
      <line class="st0" x1="39.21" y1="13" x2="2" y2="13"/>
    </g>
    <path class="st0" d="M55.67,13.5s-1.58,5.44-7.02,3.78"/>
  </g>
</svg>