<?xml version="1.0" encoding="UTF-8"?>
<svg id="Layer_1" xmlns="http://www.w3.org/2000/svg" version="1.1" viewBox="0 0 64 64">
  <!-- Generator: Adobe Illustrator 29.3.1, SVG Export Plug-In . SVG Version: 2.1.0 Build 151)  -->
  <defs>
    <style>
      .st0 {
        fill: none;
        stroke: #000;
        stroke-linecap: round;
        stroke-linejoin: round;
        stroke-width: 1.76px;
      }
    </style>
  </defs>
  <g>
    <line class="st0" x1="21.74" y1="32" x2="42.26" y2="32"/>
    <line class="st0" x1="32" y1="21.74" x2="32" y2="42.25"/>
  </g>
  <g>
    <path d="M62,49.36H15.11V2.47h46.89v46.89ZM16.93,47.54h43.25V4.28H16.93v43.25Z"/>
    <path d="M48.89,61.53H2V14.64h46.89v46.89ZM3.82,59.71h43.25V16.46H3.82v43.25Z"/>
    <rect x="45.59" y="8.55" width="17.89" height="1.82" transform="translate(8.15 39.66) rotate(-42.91)"/>
    <rect x="45.59" y="53.62" width="17.89" height="1.82" transform="translate(-22.54 51.73) rotate(-42.92)"/>
    <rect x=".52" y="53.62" width="17.89" height="1.82" transform="translate(-34.57 21) rotate(-42.86)"/>
    <rect x=".52" y="8.55" width="17.89" height="1.82" transform="translate(-3.91 8.96) rotate(-42.86)"/>
  </g>
</svg>