<?xml version="1.0" encoding="UTF-8"?>
<svg id="Layer_1" xmlns="http://www.w3.org/2000/svg" version="1.1" viewBox="0 0 64 64">
  <!-- Generator: Adobe Illustrator 29.3.1, SVG Export Plug-In . SVG Version: 2.1.0 Build 151)  -->
  <defs>
    <style>
      .st0 {
        stroke-linecap: round;
        stroke-linejoin: round;
        stroke-width: 1.76px;
      }

      .st0, .st1 {
        fill: none;
        stroke: #000;
      }

      .st1 {
        stroke-miterlimit: 10;
        stroke-width: 1.76px;
      }
    </style>
  </defs>
  <g>
    <path class="st1" d="M6.88,43.66c-2.56,0-4.64-2.08-4.64-4.64s2.08-4.64,4.64-4.64,4.64,2.08,4.64,4.64-2.08,4.64-4.64,4.64Z"/>
    <path class="st1" d="M22.03,61.87c-2.56,0-4.64-2.08-4.64-4.64s2.08-4.64,4.64-4.64,4.64,2.08,4.64,4.64-2.08,4.64-4.64,4.64Z"/>
    <path class="st1" d="M52.71,57.35c0,2.56-2.08,4.64-4.64,4.64s-4.64-2.08-4.64-4.64,2.08-4.64,4.64-4.64,4.64,2.08,4.64,4.64Z"/>
    <path class="st1" d="M62,6.64c0,2.56-2.08,4.64-4.64,4.64s-4.64-2.08-4.64-4.64,2.08-4.64,4.64-4.64,4.64,2.08,4.64,4.64Z"/>
    <line class="st1" x1="10.72" y1="42.69" x2="19.23" y2="53.52"/>
    <line class="st1" x1="26.81" y1="57.43" x2="42.59" y2="57.32"/>
    <line class="st1" x1="50.27" y1="52.71" x2="56.8" y2="11.29"/>
  </g>
  <g>
    <line class="st0" x1="21.74" y1="32" x2="42.26" y2="32"/>
    <line class="st0" x1="32" y1="21.74" x2="32" y2="42.25"/>
  </g>
</svg>