<?xml version="1.0" encoding="UTF-8"?>
<svg id="Layer_1" xmlns="http://www.w3.org/2000/svg" version="1.1" viewBox="0 0 64 64">
  <!-- Generator: Adobe Illustrator 29.3.1, SVG Export Plug-In . SVG Version: 2.1.0 Build 151)  -->
  <defs>
    <style>
      .st0, .st1 {
        stroke: #000;
        stroke-linejoin: round;
        stroke-width: 2px;
      }

      .st1 {
        fill: none;
      }
    </style>
  </defs>
  <path class="st1" d="M30.65,20.19c-3.63,3.63-9.52,3.63-13.15,0-3.63-3.63-3.63-9.52,0-13.15,3.63-3.64,9.52-3.64,13.15,0,3.63,3.63,3.63,9.52,0,13.16Z"/>
  <path class="st0" d="M43.81,33.34c-3.63,3.63-9.52,3.63-13.16,0-3.63-3.63-3.63-9.52,0-13.15,3.63-3.63,9.53-3.63,13.16,0,3.63,3.63,3.63,9.53,0,13.16Z"/>
  <path class="st0" d="M56.97,46.49c-3.64,3.63-9.52,3.63-13.16,0-3.63-3.63-3.63-9.53,0-13.16,3.63-3.63,9.51-3.63,13.16,0,3.63,3.63,3.64,9.53,0,13.16Z"/>
  <path class="st1" d="M25.46,38.53c-3.63,3.63-9.52,3.63-13.15,0-3.63-3.63-3.63-9.52,0-13.16,3.63-3.63,9.52-3.63,13.15,0,3.63,3.63,3.63,9.53,0,13.16Z"/>
  <path class="st1" d="M38.62,51.69c-3.63,3.63-9.52,3.63-13.16,0-3.63-3.63-3.63-9.52,0-13.15,3.63-3.63,9.53-3.63,13.16,0,3.64,3.63,3.64,9.53,0,13.16Z"/>
  <path class="st0" d="M20.18,56.97c-3.63,3.63-9.52,3.63-13.16,0-3.63-3.64-3.63-9.53,0-13.15,3.64-3.63,9.52-3.63,13.16,0,3.64,3.63,3.64,9.52,0,13.15Z"/>
</svg>